<svg width="148" height="171" fill="none" xmlns="http://www.w3.org/2000/svg"><path d="M44.154 94.914c5.19-10.307 13.016-19.424 20.584-28.24C70.27 60.228 75.64 53.97 79.98 47.4l-.237-.288c-9.855-12.014-20.091-24.335-25.559-38.92a38.512 38.512 0 01-1.88-7.051c-.077-.446-.03-1.168-.68-1.14-.563.025-.468.714-.566 1.137-.231.993-.384 2.005-.62 2.997-9.026 38-58.76 57.275-49.23 100.575 4.175 18.971 19.965 35.182 39.18 38.87a46.5 46.5 0 003.078.482 55.613 55.613 0 01-4.176-12.07c-2.825-12.839-1.235-24.967 4.864-37.077z" fill="#fff"/><path d="M146.749 109.999c-2.975-14.42-13.708-25.945-22.747-36.964-9.856-12.014-20.092-24.335-25.56-38.92a38.512 38.512 0 01-1.88-7.051c-.075-.437-.031-1.14-.643-1.14h-.035c-.563.024-.468.713-.566 1.135-.231.993-.385 2.006-.62 2.997-9.025 38.001-58.76 57.276-49.23 100.575 4.175 18.972 19.965 35.183 39.18 38.871a47.3 47.3 0 008.927.842c.85 0 1.697-.023 2.544-.067 29.639-1.541 56.934-29.727 50.632-60.279l-.002.001z" fill="#fff"/></svg>